<svg width="40" height="40" viewBox="0 0 40 40" fill="none" xmlns="http://www.w3.org/2000/svg">
<mask id="path-1-inside-1" fill="white">
<path fill-rule="evenodd" clip-rule="evenodd" d="M5 40L37 40C38.6569 40 40 38.6569 40 37L40 3C40 1.34315 38.6569 3.69728e-06 37 3.55243e-06L3 5.80055e-07C1.34315 4.35208e-07 3.37949e-06 1.34315 3.23465e-06 3L4.37114e-07 35L5 40Z"/>
</mask>
<path fill-rule="evenodd" clip-rule="evenodd" d="M5 40L37 40C38.6569 40 40 38.6569 40 37L40 3C40 1.34315 38.6569 3.69728e-06 37 3.55243e-06L3 5.80055e-07C1.34315 4.35208e-07 3.37949e-06 1.34315 3.23465e-06 3L4.37114e-07 35L5 40Z" fill="white"/>
<path d="M37 40L37 39L37 40ZM5 40L4.29289 40.7071L4.58578 41L5 41L5 40ZM40 37L41 37L40 37ZM40 3L39 3L40 3ZM4.37114e-07 35L-1 35L-1 35.4143L-0.707107 35.7071L4.37114e-07 35ZM37 39L5 39L5 41L37 41L37 39ZM39 37C39 38.1046 38.1046 39 37 39L37 41C39.2091 41 41 39.2092 41 37L39 37ZM39 3L39 37L41 37L41 3L39 3ZM37 1C38.1046 1 39 1.89544 39 3L41 3C41 0.790867 39.2091 -0.999996 37 -0.999996L37 1ZM3 1L37 1L37 -0.999996L3 -0.999999L3 1ZM1 3C1 1.89543 1.89543 1 3 1L3 -0.999999C0.790867 -1 -0.999997 0.790863 -0.999997 3L1 3ZM1 35L1 3L-0.999997 3L-1 35L1 35ZM5.70711 39.2929L0.707108 34.2929L-0.707107 35.7071L4.29289 40.7071L5.70711 39.2929Z" fill="#84CEE5" mask="url(#path-1-inside-1)"/>
<path fill-rule="evenodd" clip-rule="evenodd" d="M24.5 10H16.5V15.5H24.5V10ZM16.5 9H15.5V10V15.5V16.5H16.5H19.875V20H13.625H13H12.375V23.5H9H8V24.5V30V31H9H17H18V30V24.5V23.5H17H13.625V21.25H27.375V23.5H24H23V24.5V30V31H24H32H33V30V24.5V23.5H32H28.625V20H28H27.375H21.125V16.5H24.5H25.5V15.5V10V9H24.5H16.5ZM17 30V24.5H9V30H17ZM24 30V24.5H32V30H24Z" fill="#0099C9"/>
</svg>
