<svg width="20" height="20" viewBox="0 0 20 20" fill="none" xmlns="http://www.w3.org/2000/svg">
<path d="M1.3464 17.195C1.38542 17.2134 1.428 17.2229 1.47113 17.2229C1.54686 17.2208 1.61927 17.1913 1.67492 17.1399L4.64511 14.5313H18.5324C18.5719 14.5322 18.6112 14.5249 18.6478 14.51C18.6845 14.4951 18.7177 14.4729 18.7454 14.4446C18.773 14.4164 18.7946 14.3828 18.8088 14.3459C18.823 14.3089 18.8294 14.2695 18.8278 14.23V3.08957C18.8278 2.91695 18.705 2.77344 18.5324 2.77344H1.46691C1.29429 2.77344 1.17152 2.91695 1.17152 3.08957V16.9104C1.16978 16.9697 1.18541 17.0283 1.21648 17.0788C1.24755 17.1294 1.2927 17.1698 1.3464 17.195ZM1.79652 3.39844H18.2028V13.9063H4.52761C4.45381 13.9084 4.38346 13.938 4.33031 13.9893L1.79652 16.2214V3.39844Z" fill="#007DAB" stroke="#007DAB" stroke-width="0.5"/>
<path d="M4.96094 8.98438H15.0391C15.1219 8.98438 15.2014 8.95145 15.26 8.89285C15.3186 8.83424 15.3516 8.75476 15.3516 8.67188C15.3516 8.58899 15.3186 8.50951 15.26 8.4509C15.2014 8.3923 15.1219 8.35938 15.0391 8.35938H4.96094C4.87806 8.35938 4.79857 8.3923 4.73997 8.4509C4.68136 8.50951 4.64844 8.58899 4.64844 8.67188C4.64844 8.75476 4.68136 8.83424 4.73997 8.89285C4.79857 8.95145 4.87806 8.98438 4.96094 8.98438Z" fill="#007DAB" stroke="#007DAB" stroke-width="0.5"/>
<path d="M4.96094 6.75781H10.5859C10.6688 6.75781 10.7483 6.72489 10.8069 6.66628C10.8655 6.60768 10.8984 6.52819 10.8984 6.44531C10.8984 6.36243 10.8655 6.28295 10.8069 6.22434C10.7483 6.16574 10.6688 6.13281 10.5859 6.13281H4.96094C4.87806 6.13281 4.79857 6.16574 4.73997 6.22434C4.68136 6.28295 4.64844 6.36243 4.64844 6.44531C4.64844 6.52819 4.68136 6.60768 4.73997 6.66628C4.79857 6.72489 4.87806 6.75781 4.96094 6.75781Z" fill="#007DAB" stroke="#007DAB" stroke-width="0.5"/>
<path d="M4.96094 11.2109H15.0391C15.1219 11.2109 15.2014 11.178 15.26 11.1194C15.3186 11.0608 15.3516 10.9813 15.3516 10.8984C15.3516 10.8156 15.3186 10.7361 15.26 10.6775C15.2014 10.6189 15.1219 10.5859 15.0391 10.5859H4.96094C4.87806 10.5859 4.79857 10.6189 4.73997 10.6775C4.68136 10.7361 4.64844 10.8156 4.64844 10.8984C4.64844 10.9813 4.68136 11.0608 4.73997 11.1194C4.79857 11.178 4.87806 11.2109 4.96094 11.2109Z" fill="#007DAB" stroke="#007DAB" stroke-width="0.5"/>
</svg>
