<?xml version="1.0" encoding="utf-8"?>
<!-- Generator: Adobe Illustrator 19.2.0, SVG Export Plug-In . SVG Version: 6.00 Build 0)  -->
<svg version="1.1" id="Calque_1" xmlns="http://www.w3.org/2000/svg" xmlns:xlink="http://www.w3.org/1999/xlink" x="0px" y="0px"
	 viewBox="0 0 24 24" style="enable-background:new 0 0 24 24; fill:#BDBDBD;" xml:space="preserve">
<style type="text/css">
	.st0{fill:none;}
	.st1{opacity:0.3;enable-background:new    ;}
	.st2{fill:#FFFFFF;}
</style>
<path class="st0" d="M0.1,0.1h24v24h-24V0.1z"/>
<path class="st1" d="M19.1,5.1h-14v14h14V5.1z"/>
<g id="Calque_2_-_copie">
	<g>
		<path class="st2" d="M5.5,9.3h2.2c1.1,0,1.7,1,1.7,2.7c0,1.8-0.6,2.7-1.7,2.7H5.5V9.3z M6.5,13.6h0.9C8,13.6,8.3,13,8.3,12
			S8,10.5,7.4,10.5H6.5V13.6z"/>
		<path class="st2" d="M10,11.8v-0.9h1.6c0.3,0,0.6,0.1,0.9,0.4c0.3,0.3,0.3,0.7,0.3,1.2v2.4h-2.1c-0.6,0-1-0.5-1-1.2
			c0-0.7,0.3-1.2,1-1.2h1.2v0c0-0.1,0-0.2-0.1-0.4c-0.1-0.2-0.2-0.2-0.4-0.2H10z M11.9,13.8v-0.6H11c-0.1,0-0.3,0-0.3,0.3
			c0,0.2,0.1,0.3,0.3,0.3H11.9z"/>
		<path class="st2" d="M14.6,14.7c-0.3,0-0.5,0-0.7-0.3c-0.2-0.3-0.2-0.5-0.2-0.9v-1.8h-0.5v-0.9h0.5V9.3h0.9v1.6h0.8v0.9h-0.8v1.5
			c0,0.2,0,0.3,0.1,0.4c0.1,0.1,0.2,0.1,0.3,0.1h0.4v0.9H14.6z"/>
		<path class="st2" d="M15.9,11.8v-0.9h1.6c0.3,0,0.6,0.1,0.9,0.4c0.3,0.3,0.3,0.7,0.3,1.2v2.4h-2.1c-0.6,0-1-0.5-1-1.2
			c0-0.7,0.3-1.2,1-1.2h1.2v0c0-0.1,0-0.2-0.1-0.4c-0.1-0.2-0.2-0.2-0.4-0.2H15.9z M17.8,13.8v-0.6h-0.9c-0.1,0-0.3,0-0.3,0.3
			c0,0.2,0.1,0.3,0.3,0.3H17.8z"/>
	</g>
</g>
<path d="M5.1,21.1h14c1.1,0,2-0.9,2-2v-14c0-1.1-0.9-2-2-2h-14c-1.1,0-2,0.9-2,2v14C3.1,20.2,3.9,21.1,5.1,21.1z M5.1,5.1h14v14h-14
	V5.1z"/>
<g id="Calque_2">
	<g>
		<path d="M5.5,9.3h2.2c1.1,0,1.7,1,1.7,2.7c0,1.8-0.6,2.7-1.7,2.7H5.5V9.3z M6.5,13.6h0.9C8,13.6,8.3,13,8.3,12S8,10.5,7.4,10.5
			H6.5V13.6z"/>
		<path d="M10,11.8v-0.9h1.6c0.3,0,0.6,0.1,0.9,0.4c0.3,0.3,0.3,0.7,0.3,1.2v2.4h-2.1c-0.6,0-1-0.5-1-1.2c0-0.7,0.3-1.2,1-1.2h1.2v0
			c0-0.1,0-0.2-0.1-0.4c-0.1-0.2-0.2-0.2-0.4-0.2H10z M11.9,13.8v-0.6H11c-0.1,0-0.3,0-0.3,0.3c0,0.2,0.1,0.3,0.3,0.3H11.9z"/>
		<path d="M14.6,14.7c-0.3,0-0.5,0-0.7-0.3c-0.2-0.3-0.2-0.5-0.2-0.9v-1.8h-0.5v-0.9h0.5V9.3h0.9v1.6h0.8v0.9h-0.8v1.5
			c0,0.2,0,0.3,0.1,0.4c0.1,0.1,0.2,0.1,0.3,0.1h0.4v0.9H14.6z"/>
		<path d="M15.9,11.8v-0.9h1.6c0.3,0,0.6,0.1,0.9,0.4c0.3,0.3,0.3,0.7,0.3,1.2v2.4h-2.1c-0.6,0-1-0.5-1-1.2c0-0.7,0.3-1.2,1-1.2h1.2
			v0c0-0.1,0-0.2-0.1-0.4c-0.1-0.2-0.2-0.2-0.4-0.2H15.9z M17.8,13.8v-0.6h-0.9c-0.1,0-0.3,0-0.3,0.3c0,0.2,0.1,0.3,0.3,0.3H17.8z"
			/>
	</g>
</g>
</svg>
